<svg width="16" height="16" viewBox="0 0 16 16" fill="none" xmlns="http://www.w3.org/2000/svg">
  <path
    d="M4.60607 4.38603V1.39258V4.38603ZM10.593 4.38603V1.39258V4.38603ZM3.85771 7.37948H11.3413H3.85771ZM2.36098 14.8631H12.8381C13.235 14.8631 13.6157 14.7054 13.8964 14.4247C14.1771 14.144 14.3348 13.7633 14.3348 13.3664V4.38603C14.3348 3.98907 14.1771 3.60838 13.8964 3.32768C13.6157 3.04699 13.235 2.8893 12.8381 2.8893H2.36098C1.96403 2.8893 1.58333 3.04699 1.30264 3.32768C1.02195 3.60838 0.864258 3.98907 0.864258 4.38603V13.3664C0.864258 13.7633 1.02195 14.144 1.30264 14.4247C1.58333 14.7054 1.96403 14.8631 2.36098 14.8631Z"
    stroke="#776EC9" stroke-width="1.49673" stroke-linecap="round" stroke-linejoin="round" />
</svg>